**ABCDEFGHIJKLMNOPQRSTUVWXYZabcdefghijklmnopqrstuvwxyz**************************
**PARASOLID !"#$%&'()*+,-./:;<=>?@[\]^_`{|}~0123456789**************************
**PART1;
MC=AMD64;
MC_MODEL=AMD64 Family 25 Model 80 Stepping 0, AuthenticAMD;
MC_ID=unknown;
OS=Windows_NT;
OS_RELEASE=unknown;
FRU=Parasolid Version 34.1, build 225,  5-24-2022;
APPL=SOLIDWORKS 2023-2022300;
SITE=;
USER=unknown;
FORMAT=text;
GUISE=transmit;
KEY=makeProjectedPlanarWire;
FILE=makeProjectedPlanarWire.x_t;
DATE=Fri Aug 16 17:08:27 2024;
**PART2;
SCH=SCH_3401225_34101;
USFLD_SIZE=0;
**PART3;
**END_OF_HEADER*****************************************************************
T51 : TRANSMIT FILE created by modeller version 340122523 SCH_3401225_34101_1300
6231 0 12 36 CCCI7 lattice222 0 CCCI4 mesh1006 0 I8 polyline1008 0 CCCCCCCDI5 ow
ner1040 0 CCCI16 boundary_lattice222 0 CCCI13 boundary_mesh1006 0 I17 boundary_p
olyline1008 0 CCCA16 index_map_offset0 0 1 dA9 index_map82 0 A17 node_id_index_m
ap82 0 A20 schema_embedding_map82 0 A5 child12 0 A14 lowest_node_id0 0 1 dA16 me
sh_offset_data206 0 Z1 97 2 3 0 0 0 0 0 0 0 1e3 1e-8 0 4 0 1 0 3 1 5 0 6 7 8 0 0
 9 10 11 0 0 0 0 0 0 0 81 255 2 2 76 12 1 0 0 0 0 13 0 70 11 CI9 list_type0 0 1
 uI10 notransmit0 0 1 lCCCDCCDI12 finger_index0 0 1 dI12 finger_block1012 0 CZ3
 0 4 T1 0 0 2 20 1 14 14 13 255 5 81 0 1 0 15 0 0 9 15 50 255 6 3 0 15 0 0 0 +0
 0 .004 0 0 1 1 0 0 30 255 7 48 0 10 16 0 0 +0 .005 .004 1 0 0 29 255 8 73 0 11
 17 0 .002 .005 .004 19 9 CCCCCCI5 frame230 0 CA5 owner12 0 Z9 80 0 1 0 0 5 0 V0
 16 255 10 46 0 ?18 0 19 7 0 0 1 18 255 11 71 0 20 0 21 8 ?1 17 255 20 0 0 0 0 1
1 22 23 0 18 -18 21 68 0 24 11 25 17 ?1 17 24 0 26 18 27 21 28 19 0 29 -18 25 65
 0 27 21 30 31 ?1 29 17 70 0 21 31 8 -.013 .005 .004 29 31 67 0 25 32 17 -.013 .
02 .004 29 32 64 0 30 33 31 .025 .02 .004 18 30 62 0 34 25 35 32 ?1 29 33 61 0 3
5 36 32 .025 -.02 .004 18 35 59 0 37 30 38 33 ?1 29 36 58 0 38 39 33 -.013 -.02
 .004 18 38 56 0 40 35 41 36 ?1 29 39 55 0 41 42 36 -.013 -.005 .004 18 41 53 0
 43 38 44 39 ?1 29 42 52 0 44 0 39 .002 -.005 .004 18 44 50 0 22 41 0 42 ?1 17 2
2 0 26 43 18 44 20 23 0 45 +15 255 26 12 0 22 15 0 17 43 0 26 40 22 41 45 46 0 4
7 +17 18 0 26 22 24 11 29 10 0 0 +16 23 25 0 ?22 46 48 49 0 0 1 17 45 0 0 0 0 44
 43 46 0 0 -16 46 29 0 ?43 50 23 51 0 0 1 16 50 33 0 ?47 52 46 53 19 19 1 30 51
 31 0 46 49 53 0 +0 -.005 .004 -1 0 0 30 49 27 0 23 54 51 0 +.002 34694469519536
15e-34 .004 1734723475976805e-31 -1 0 30 53 35 0 50 51 55 0 +-.013 -.02 .004 0 1
 0 30 55 38 0 52 53 56 0 +.025 -.02 .004 1 1387778780781446e-31 0 16 52 36 0 ?37
 57 50 55 0 0 1 30 56 41 0 57 55 16 0 +.025 -.02 .004 0 1 0 16 57 39 0 ?34 58 52
 56 0 0 1 30 16 44 0 58 56 7 0 +.025 .02 .004 -1 -1387778780781446e-31 0 16 58 4
2 0 ?27 19 57 16 0 0 1 17 27 0 26 24 34 25 59 58 0 28 +16 19 45 0 ?28 10 58 53 5
0 50 1 17 28 0 0 0 0 25 24 19 0 0 +17 34 0 26 27 37 30 60 57 0 59 +17 59 0 0 0 0
 30 27 58 0 0 -17 37 0 26 34 40 35 61 52 0 60 +17 60 0 0 0 0 35 34 57 0 0 -17 40
 0 26 37 43 38 47 50 0 61 -17 61 0 0 0 0 38 37 52 0 0 -17 47 0 0 0 0 41 40 50 0
 0 +31 255 54 24 0 48 62 49 0 +.0045 -.015 .004 0 0 1 1 0 0 .00175 16 48 22 0 ?6
3 23 64 54 0 0 1 31 62 21 0 64 65 54 0 +.0205 -.015 .004 0 0 1 1 0 0 .00175 16 6
4 19 0 ?66 48 67 62 0 0 1 31 65 18 0 67 68 62 0 +.0205 .015 .004 0 0 1 1 0 0 .00
175 16 67 16 0 ?69 64 70 65 0 0 1 31 68 15 0 70 0 65 0 +-.0045 .015 .004 0 0 1 1
 0 0 .00175 16 70 13 0 ?71 67 0 68 0 0 1 17 71 0 0 0 0 0 72 70 0 0 +17 72 0 73 7
2 72 0 71 70 0 0 -15 73 8 0 72 15 74 14 255 15 1 75 ?0 0 73 5 6 +0 0 0 0 5 15 74
 9 0 76 15 77 17 76 0 74 76 76 0 69 67 0 0 -15 77 10 0 78 15 79 17 78 0 77 78 78
 0 66 64 0 0 -15 79 11 0 80 15 26 17 80 0 79 80 80 0 63 48 0 0 -17 63 0 0 0 0 0
 80 48 0 0 +17 66 0 0 0 0 0 78 64 0 0 +17 69 0 0 0 0 0 76 67 0 0 +81 1 75 97 81
 15 0 0 0 0 82 80 7 CCCCCDI12 legal_owners0 16 1 lCZ1 81 83 84 9000 1 1 1 1 1 1
 1 1 0 FFFFTFTFFFFFFFFF1 82 255 1 82 -1005453124 79 255 14 84 SWEntUnchanged17 2
9 0 0 0 0 21 18 10 0 0 -74 4 CI16 index_map_offset0 0 1 dCCZ20 14 2 0 0 2 75 0 0
 0 0 0 0 0 0 0 0 0 0 0 0 0 0 0 0 80 2 12 85 86 9000 0 0 0 0 3 5 0 0 0 FFTFTTTFFT
FFFFFF3 3 84 255 7 13 ·Ö¸îÏß179 21 86 SWIMPLICITBODYNAME_ID1 0 
